:SAMPLES-PER-SECOND 30
:FULLY-SPECIFIED
:DEGREES
1812
root  16.7454 38.7846 -17.0506 172.722 3.61157 174.39
RightUpLeg  17.7716 -14.0671 -9.92739
RightLeg  27.0629 12.5812 6.6974
RightFoot  -11.6559 -0.0455509 13.1733
RightToes  5.82063e-011 0 -3.6325e-017
Spine  1.04324 1.4081 -1.19525
Spine1  13.7768 5.10441 -13.1504
HEad  -12.3216 -3.38562 -0.365173
LeftShoulder1  0.0374999 3.39813 -29.1832
LeftArm  -6.52702 3.87046 -31.7952
LeftForeArm  16.9133 -3.15308 -7.2123
LeftHand  0.0843887 7.71519 5.86394
RightShoulder  -0.589678 -5.2416 27.1669
RightArm  36.1559 5.34474 61.3133
RightForeArm  9.55179 17.3751 6.97776
RightHand  -0.0977731 2.40256 -1.65213
LeftUpLeg  -7.16833 3.18671 -8.49277
LeftLeg  10.4974 18.0915 0.656109
LeftFoot  1.79564 -1.15905 9.94169
LeftToes  1.54581e-011 7.46816e-011 -4.69922e-011
1813
root  16.7725 38.6983 -17.8204 172.463 4.79346 173.615
RightUpLeg  12.8929 -12.4262 -11.5766
RightLeg  37.5907 12.8014 10.1243
RightFoot  -6.85541 -0.74511 17.4616
RightToes  5.82063e-011 0 -3.6325e-017
Spine  2.19296 1.56393 -2.29617
Spine1  13.2222 5.10018 -13.8177
HEad  -13.0692 -3.20425 -1.08395
LeftShoulder1  0.0941834 3.23821 -29.3217
LeftArm  -6.60661 1.54494 -32.6979
LeftForeArm  16.601 -2.91053 -7.29437
LeftHand  0.103351 8.04075 6.07909
RightShoulder  -0.472624 -4.93473 26.1774
RightArm  41.4325 5.35434 61.2376
RightForeArm  6.82575 19.4413 6.04934
RightHand  -0.0991388 2.45173 -1.66518
LeftUpLeg  -6.5918 4.0524 -8.89191
LeftLeg  12.349 18.6361 0.948099
LeftFoot  -0.285609 -0.916118 9.45055
LeftToes  1.54581e-011 7.46816e-011 -4.69922e-011
1814
root  16.7791 38.5509 -18.5338 171.489 5.91296 172.3
RightUpLeg  8.15755 -10.1611 -13.6843
RightLeg  47.5034 11.6025 12.9658
RightFoot  -0.685522 -1.9584 20.82
RightToes  5.82063e-011 0 -3.6325e-017
Spine  3.98621 1.63356 -4.08678
Spine1  12.8593 4.85552 -14.1915
HEad  -13.7224 -3.25382 -1.95306
LeftShoulder1  0.174783 3.01444 -29.5988
LeftArm  -6.55324 -0.828539 -33.7271
LeftForeArm  17.4189 -3.25715 -7.4708
LeftHand  0.108529 8.40477 5.71967
RightShoulder  -0.396407 -4.723 25.5573
RightArm  43.785 6.23751 60.8457
RightForeArm  4.53441 20.4533 5.63114
RightHand  -0.118421 2.68742 -1.91718
LeftUpLeg  -5.43405 4.54349 -9.97708
LeftLeg  14.2689 19.6664 1.61762
LeftFoot  -2.41677 -0.649871 8.49374
LeftToes  1.54581e-011 7.46816e-011 -4.69922e-011
1815
root  16.7676 38.4088 -19.2313 170.401 6.98785 171.284
RightUpLeg  3.82654 -8.02549 -15.3823
RightLeg  55.2129 9.96957 14.6335
RightFoot  4.25211 -2.84813 20.8253
RightToes  5.82063e-011 0 -3.6325e-017
Spine  5.19088 1.60177 -5.69993
Spine1  13.4672 4.40691 -14.0801
HEad  -14.5471 -2.89494 -3.12115
LeftShoulder1  0.173587 3.02629 -30.2281
LeftArm  -5.74096 -3.87296 -34.6821
LeftForeArm  17.3653 -3.69693 -8.15475
LeftHand  0.11106 7.57498 7.43218
RightShoulder  -0.400165 -4.74375 25.2903
RightArm  42.6405 8.09283 60.3866
RightForeArm  4.73119 20.0265 5.81954
RightHand  -0.0991596 2.885 -1.61316
LeftUpLeg  -4.17789 4.86097 -11.0472
LeftLeg  16.1416 20.8294 2.79584
LeftFoot  -4.3285 -0.439333 7.59531
LeftToes  1.54581e-011 7.46816e-011 -4.69922e-011
1816
root  16.7684 38.4032 -19.982 169.723 7.70312 171.25
RightUpLeg  -0.27462 -6.60618 -15.8399
RightLeg  60.2731 7.54525 13.5683
RightFoot  3.41975 -2.31529 17.9014
RightToes  5.82063e-011 0 -3.6325e-017
Spine  5.89764 1.25095 -6.16009
Spine1  13.7255 3.81841 -13.932
HEad  -14.4099 -3.02241 -3.91205
LeftShoulder1  0.144531 3.10862 -30.5179
LeftArm  -4.64401 -7.06848 -35.9173
LeftForeArm  18.6187 -4.13547 -8.90245
LeftHand  0.0915547 7.68805 6.31458
RightShoulder  -0.510734 -5.05493 26.122
RightArm  37.1798 9.58359 59.3927
RightForeArm  7.42273 18.583 6.28063
RightHand  -0.131874 2.71166 -2.10287
LeftUpLeg  -2.61928 5.3709 -11.0316
LeftLeg  16.9906 21.1644 3.3037
LeftFoot  -5.82301 -0.299996 6.94298
LeftToes  1.54581e-011 7.46816e-011 -4.69922e-011
1817
root  16.7839 38.4607 -20.7696 169.201 8.31879 171.508
RightUpLeg  -4.00389 -5.18662 -15.6842
RightLeg  62.4695 5.58189 11.0154
RightFoot  2.46753 -1.79827 14.9312
RightToes  5.82063e-011 0 -3.6325e-017
Spine  6.34774 0.823101 -6.26249
Spine1  13.7269 3.16782 -13.572
HEad  -13.6897 -3.33452 -4.25317
LeftShoulder1  0.0974423 3.24045 -30.9485
LeftArm  -4.17707 -9.72362 -37.5596
LeftForeArm  20.0472 -5.02535 -9.21141
LeftHand  0.100683 8.14514 5.73081
RightShoulder  -0.558075 -5.18103 26.5082
RightArm  28.8232 10.2231 58.6617
RightForeArm  9.64881 16.476 6.75173
RightHand  -0.189487 2.71335 -2.92814
LeftUpLeg  -0.764771 5.7835 -10.7378
LeftLeg  17.122 21.2304 3.58051
LeftFoot  -6.94302 -0.198461 6.26917
LeftToes  1.54581e-011 7.46816e-011 -4.69922e-011
